
<svg id="Layer_1" data-name="Layer 1" xmlns="http://www.w3.org/2000/svg" viewBox="0 0 139.27 108.74"><defs><style>.cls-1,.cls-6{fill:none;}.cls-2{opacity:0.8;}.cls-3,.cls-4{fill:#fff;}.cls-3{opacity:0.2;}.cls-4,.cls-5,.cls-6{stroke:#000;}.cls-4,.cls-5{stroke-miterlimit:10;}.cls-6{stroke-linecap:round;stroke-linejoin:round;stroke-width:0;}</style></defs><title>logo_rh</title><rect class="cls-1" x="94.22" y="63.76" width="32.53" height="46.23" transform="translate(-12.03 138.14) rotate(-66.59)"/><g class="cls-2"><path d="M117.86,75.8l0,.11c0-.27-.29-.17-.25-.27S117.85,75.64,117.86,75.8Z" transform="translate(1.11 -15.6)"/><path d="M101,65.62l-.12.27c-.38,0-.35-.4-.45-.56.08-.17-.09-.44.23-.42S101.07,65.32,101,65.62Z" transform="translate(1.11 -15.6)"/><path d="M103.88,70.92c.49-.11-.1.8.68.66.16-.1,0-.47.28-.45,1.28.56,3,.1,4.43-.21-.25.21-.12.75-.51.9-.61.3-1.9-.06-1.7,1a4,4,0,0,1-1.6,2.69c0,1.55,2.05,1.21,2.14,2.77a.93.93,0,0,1-.84.36c-.87-.05-1.3-1-2.17-.85-.08.36,0,.79-.3,1.07-.93.65-1.8,1.56-2.6,2-.26-.43-.08-1-.43-1.35-.28.28-.78-.14-.9.42-.39.07-.55-.4-.67-.69-.54,0-.58,1.8-1,.95-.42-.06.07-.54.06-.7a.91.91,0,0,0,.36-.09c-.13-1.18.3-2.28.21-3.45-.94-.36-1.78.48-2.79.4.11-.27.68-.27.91-.53l.3-.79c-.87-.58-.24-1.39-.69-2,.2,0,.51.22.77.17.63.32.49-.67,1.06-.58.18-.41-.23-.87-.28-1.3-.47-.12-.58-.61-1-.65-.36-.28.31-.35.3-.6.74.53,1.37,1.4,2.3,1.57.17-.58.55.31.65-.29l-.16-.47c.17.07.33.07.42-.14a4.34,4.34,0,0,0-.3-1c.18,0,.46.24.7.06l.08-.65a1.9,1.9,0,0,0,1,1.36c.25-.13,0-.54.16-.57,0,.13,0,.46.21.54a2.91,2.91,0,0,0,1-2c0,.23.2,0,.3,0A14.68,14.68,0,0,0,103.88,70.92Z" transform="translate(1.11 -15.6)"/><path d="M120.39,78.51c.54.8.15,1.43-.27,2.22-.49.11-1,.53-1.45.46-.07-.68-1.26-.35-.81-1.12-.66,0-.19-.76-.14-1.15a1.64,1.64,0,0,1,1-.85c.28,0,.55.12.84-.08C119.81,78.18,120,78.77,120.39,78.51Z" transform="translate(1.11 -15.6)"/><path class="cls-3" d="M119.54,78.71c-.27.08-.21-.17-.15-.31C119.64,78.47,119.23,78.69,119.54,78.71Z" transform="translate(1.11 -15.6)"/><path class="cls-3" d="M119.2,78.84c-.49-.17-.32.38-.64.65.24-.18.21-.11.43,0-.22.23-.45-.07-.38.32,0,0,.35.23.44-.09.18.44-.73.41-.64.65.15-.26.06-.42.1-.68s-.29-.09-.41-.18c.28-.08.3-.23.25-.58,0,.07,0,.22.11.21s0-.18.07-.25,0,.07,0,.13c.46,0,.11-.35.07-.53.07,0,.12.29.38.24s0-.22.13-.3Z" transform="translate(1.11 -15.6)"/><path class="cls-3" d="M119.36,79c0-.1.16-.09.16-.17-.12.35.45.15.1.4.27-.16.51.22.67,0l-.12.35c-.06,0,0-.06,0-.14-.23.06,0,.46.14.42l-.48.16c-.06.05.28-.08.09-.21-.46,0,0,.44-.05.59-.35-.12-.78-.14-.89.29.11-.35.14-.42.27-.8.3-.15,0,.43.31.21V80s0,.08,0,.1c0-.25.25-.38,0-.6-.24.18-.25,0-.51.06.49.26.42-.5.25-.77C119.42,78.89,119.12,78.93,119.36,79Z" transform="translate(1.11 -15.6)"/><path d="M120,79.31l-.16.09Z" transform="translate(1.11 -15.6)"/><polygon points="119.54 63.99 119.57 63.64 119.67 63.69 119.54 63.99"/><path d="M97,70l0,.35Z" transform="translate(1.11 -15.6)"/><path class="cls-3" d="M118.3,79.82c-.51.14.36-.09,0,.35-.12-.3-.47,0-.18-.44Z" transform="translate(1.11 -15.6)"/><path d="M97.39,71.77c0,.28-.59.27-.46,0S97.41,71.46,97.39,71.77Z" transform="translate(1.11 -15.6)"/><path d="M129.84,86.34c.15.39.91.6.81,1-.24,0-.33.22-.27.44s.47.13.55.4c-.64.73-.08.85-.45,1.7.18.32.66.25,1,.28-.06.21-.24,0-.35,0,.84.48,1.86.36,2.77.75-.2,0-.21.4-.17.41l-1.94-.27a6.29,6.29,0,0,0-1.48,4.54c-.06.5,1,.5.39.94-1,.07-1.21-1.37-2.08-1.14A18.39,18.39,0,0,1,126,96.86c-.66,0,0-1.09-.87-.78-.08.17-.06.42-.27.53-.26-.24.1-.88-.48-.93-.28.08-.17.57-.58.39s.35-.61-.09-.89c-.41-.73-.65.29-1.08.06a.87.87,0,0,1,.26-.69,2.65,2.65,0,0,0-.68-1,1.31,1.31,0,0,1-.68.35c.09-.48.59-1,.49-1.6s-.56.28-.74-.24c.19-.24.7-.3.78-.67l-.45-.64c.58-1.43,1.81-2.23,2.19-3.76a5.94,5.94,0,0,0,2-1.69c.23.3.4.57.81.55.19-.16.41-.31.6-.47.22.06.22.34.47.33l.47-.36c.27.31.41.74.81.83s.49-.19.71-.34C129.85,86,129.83,86.18,129.84,86.34Z" transform="translate(1.11 -15.6)"/><path d="M92.55,71.44a.51.51,0,0,1-.52-.1C92.12,71.14,92.48,71.21,92.55,71.44Z" transform="translate(1.11 -15.6)"/><path d="M120.47,86.87c.45,0,.18.52.51.59-.21.59.55,1,0,1.54-.12.83-1,.22-1.17,1-.7-.23-1.82.13-2.27-1-.48-.46.45-.94-.34-1.16a1,1,0,0,0,.59-.43c.07-.17-.18-.44,0-.56.36-.09.87-.07.85-.56.26.32.58.13.82-.13C119.49,87,120.41,86.08,120.47,86.87Z" transform="translate(1.11 -15.6)"/><rect class="cls-3" x="119.34" y="86.99" width="0.18" height="0.04" transform="translate(-6.76 146.42) rotate(-66.59)"/><path class="cls-3" d="M119,87.14c.11.49-.22-.06-.34.33.32-.38-.22,0-.22-.34.27-.16.12.18.37.17l.21-.4v.25Z" transform="translate(1.11 -15.6)"/><polygon class="cls-3" points="120.99 71.98 120.9 71.82 121 71.87 120.99 71.98"/><path class="cls-3" d="M120.38,88.2c-.09.12-.1,0-.17-.07Z" transform="translate(1.11 -15.6)"/><polygon class="cls-3" points="119.45 72 119.72 72.03 119.49 72.1 119.45 72"/><polygon class="cls-3" points="119.61 72.55 119.57 72.29 119.64 72.49 119.61 72.55"/><path class="cls-3" d="M118.31,88.23l0,.18Z" transform="translate(1.11 -15.6)"/><path class="cls-3" d="M119,88.59l-.2.11Z" transform="translate(1.11 -15.6)"/><path class="cls-3" d="M118.81,88.85l0,.22Z" transform="translate(1.11 -15.6)"/><path d="M109.41,93.19c-.25,0-.61.18-.66-.16a.39.39,0,0,1,.46-.41C109.45,92.72,109.6,93,109.41,93.19Z" transform="translate(1.11 -15.6)"/><path d="M109.13,95c-.36,1,1,1.52,1.07,2.56,0,.48-.63.13-.73.57.2.08.36.27.54.31-.17.13-.66,0-.69.39a2.67,2.67,0,0,0,.3,1.17c-.47.72-2.41.09-1.7,1.52-.25-.19-.25-.63-.57-.65-.42.14-.09,1.33-.83.89,0-.14-.15-.31-.32-.18-.47.16,0,.86-.48.92-.28-.56-.94-.81-.88-1.51-.28-.36-.77,0-1,0-.63-.23,0-1-.54-1.36a1.8,1.8,0,0,1-1.55-.15c.56-.36,0-.74-.17-1,.91-.53-.24-1.47.45-2-.18,0-.46,0-.47-.21.34-.21.78.34,1-.27,0-.28.49-.39.32-.74,0-.18-.5-.14-.31-.38.59,0,1.16-.54,1.7-.87.36-.17.47.49.78.06.06-.22-.21-.46,0-.68,1.06.25,2.35,1.09,3.65.69A1.08,1.08,0,0,1,109.13,95Z" transform="translate(1.11 -15.6)"/><path d="M113.5,85.44a1,1,0,0,1-.49,1c-.29.2-.59-.13-.83.16,0-.3-.42-.26-.48-.48s-.27-.68,0-1,.84-.72,1.27-.41S113.34,85.17,113.5,85.44Z" transform="translate(1.11 -15.6)"/><path class="cls-3" d="M112.35,85.22a.21.21,0,0,1-.17-.35c.3.24.28-.29.58,0C112.74,85.07,112.43,85.21,112.35,85.22Z" transform="translate(1.11 -15.6)"/><path class="cls-3" d="M112.81,85.1l-.13.1Z" transform="translate(1.11 -15.6)"/><path class="cls-3" d="M112.91,86.07l0-.22-.06.05c.07,0,.16-.29.31-.34C113.06,85.73,113.35,86.26,112.91,86.07Z" transform="translate(1.11 -15.6)"/><path class="cls-3" d="M112,85.92c0-.07.52-.38.71-.06-.46-.44-.15.42-.51.43l.1-.24c-.38.32-.32-.26-.47-.41,0,0,0,0,.06.07a.24.24,0,0,0,.1-.32s.13,0,0-.1C112.43,85.41,112,85.62,112,85.92Z" transform="translate(1.11 -15.6)"/><path class="cls-3" d="M111.77,85.45l-.12-.09c.11,0,.12-.19.24-.1Z" transform="translate(1.11 -15.6)"/></g><rect class="cls-1" x="51.59" y="90.22" width="21.61" height="30.71" transform="translate(-47.18 37.17) rotate(-33.91)"/><g class="cls-2"><path d="M70.49,102l-.06,0c.11-.14-.1-.2,0-.24S70.54,101.93,70.49,102Z" transform="translate(1.11 -15.6)"/><path d="M64.73,90.3l-.16.1c-.23-.11-.06-.34,0-.46s.1-.28.28-.16S64.87,90.14,64.73,90.3Z" transform="translate(1.11 -15.6)"/><path d="M64.42,94.28c.32.12-.34.41.15.61.12,0,.14-.27.31-.15a5.16,5.16,0,0,0,2.56,1.48c-.22,0-.34.37-.61.32-.45-.05-1-.72-1.32,0a2.68,2.68,0,0,1-1.86.93c-.58.85.71,1.41.2,2.31a.61.61,0,0,1-.6-.09c-.47-.34-.37-1-.9-1.26-.18.18-.3.44-.56.49-.75,0-1.56.23-2.18.19,0-.33.33-.6.25-.9-.26,0-.39-.36-.65-.09-.25-.11-.17-.43-.13-.63-.32-.17-1,.8-.93.15-.21-.18.23-.27.29-.37a.65.65,0,0,0,.23.09c.35-.71,1-1.17,1.35-1.86-.39-.54-1.16-.37-1.7-.78.16-.11.47.1.7,0l.45-.34c-.28-.64.37-.87.34-1.38.11.07.21.3.37.37.24.4.52-.2.81.05.24-.16.18-.56.3-.82-.22-.24-.11-.55-.35-.74s.3-.09.38-.23c.23.56.26,1.27.73,1.7.3-.26.19.37.46.07l.08-.32c.07.1.16.16.29.08a3.36,3.36,0,0,0,.18-.66c.09.09.17.3.37.29l.27-.34a1.31,1.31,0,0,0,.08,1.13c.19,0,.22-.29.3-.26s-.14.27-.07.38A1.92,1.92,0,0,0,65.28,93c-.09.12.11.07.15.13A11.08,11.08,0,0,0,64.42,94.28Z" transform="translate(1.11 -15.6)"/><path d="M70.93,104.45c0,.64-.43.85-.94,1.14-.32-.12-.75-.06-1-.26.2-.41-.58-.65-.05-.91-.35-.27.17-.5.33-.7a1,1,0,0,1,.87-.11c.16.1.27.26.5.25C70.73,104.06,70.6,104.44,70.93,104.45Z" transform="translate(1.11 -15.6)"/><path class="cls-3" d="M70.39,104.25c-.18,0-.06-.17,0-.22C70.53,104.16,70.22,104.13,70.39,104.25Z" transform="translate(1.11 -15.6)"/><path class="cls-3" d="M70.15,104.21c-.21-.27-.32.09-.59.13.2,0,.16,0,.23.17-.2,0-.22-.21-.32,0,0,0,.1.25.27.11-.06.3-.55,0-.59.13.18-.09.19-.21.3-.35s-.13-.15-.16-.24c.18,0,.25,0,.34-.24,0,0-.06.13,0,.16s.09-.09.13-.12,0,0,0,.09c.28.14.19-.16.24-.28,0,0,0,.21.12.27s.11-.1.18-.12Z" transform="translate(1.11 -15.6)"/><path class="cls-3" d="M70.17,104.37c.06,0,.12,0,.15,0-.19.16.2.25-.09.26.21,0,.21.31.36.27l-.19.16s0-.06,0-.11c-.15,0-.19.25-.08.29l-.31-.08c-.06,0,.18,0,.12-.08-.28-.14-.17.23-.24.3-.16-.19-.39-.36-.61-.15.19-.16.24-.18.44-.36.23,0-.16.24.1.24l.08-.11s0,0,0,.06c.08-.14.27-.12.23-.32-.2,0-.15-.08-.31-.15.18.32.41-.13.42-.34C70.25,104.32,70.08,104.23,70.17,104.37Z" transform="translate(1.11 -15.6)"/><path d="M70.43,104.76h0Z" transform="translate(1.11 -15.6)"/><polygon points="70.56 88.75 70.7 88.56 70.74 88.63 70.56 88.75"/><path d="M60.91,91.3l-.09.21Z" transform="translate(1.11 -15.6)"/><path class="cls-3" d="M69.29,104.43c-.33-.1.24.08-.14.18,0-.2-.24-.19.06-.3Z" transform="translate(1.11 -15.6)"/><path d="M60.49,92.43c-.1.16-.43-.06-.24-.19S60.61,92.26,60.49,92.43Z" transform="translate(1.11 -15.6)"/><path d="M73.41,112.22c-.06.27.29.65.1.85-.15-.09-.27,0-.32.15s.22.23.17.42c-.62.18-.35.44-.86.78,0,.25.28.38.46.52-.11.1-.12-.1-.21-.1.29.57.91.87,1.28,1.42-.11-.07-.26.14-.25.17l-1-.85a4.21,4.21,0,0,0-2.46,2c-.21.26.35.62-.11.67-.56-.31-.19-1.21-.76-1.39a13.29,13.29,0,0,1-2-.16c-.38-.22.39-.62-.21-.75-.1.07-.18.21-.34.2-.06-.23.38-.46.07-.7-.18,0-.3.26-.46,0s.41-.22.26-.53c0-.56-.46-.07-.62-.35a.57.57,0,0,1,.39-.3,1.71,1.71,0,0,0,0-.81.88.88,0,0,1-.51,0c.23-.24.69-.34.85-.72s-.41,0-.33-.4c.19-.07.5.08.68-.09l0-.52c.84-.6,1.82-.6,2.58-1.32a3.93,3.93,0,0,0,1.74-.22c0,.25,0,.46.25.6.16,0,.34,0,.51,0s0,.27.14.35l.39,0c0,.27,0,.56.16.76s.34.06.51.06S73.46,112.12,73.41,112.22Z" transform="translate(1.11 -15.6)"/><path d="M57.9,90.51a.34.34,0,0,1-.25-.24C57.77,90.19,58,90.36,57.9,90.51Z" transform="translate(1.11 -15.6)"/><path d="M68,109.15c.25.16-.09.36.08.51-.34.26,0,.74-.55.87-.36.42-.62-.23-1,.15-.32-.38-1.07-.58-.92-1.36-.11-.43.58-.36.22-.77a.58.58,0,0,0,.48,0c.1-.07.06-.3.21-.31s.51.27.67,0c0,.27.28.28.5.22C67.38,108.88,68.23,108.69,68,109.15Z" transform="translate(1.11 -15.6)"/><rect class="cls-3" x="67.29" y="108.84" width="0.12" height="0.02" transform="translate(-48.17 40.49) rotate(-33.91)"/><path class="cls-3" d="M67.08,108.78c-.11.32-.1-.1-.31.07.32-.1-.13-.06,0-.27.21,0,0,.14.15.22l.25-.14-.08.14Z" transform="translate(1.11 -15.6)"/><polygon class="cls-3" points="68.5 93.74 68.51 93.61 68.55 93.67 68.5 93.74"/><path class="cls-3" d="M67.45,109.86c-.09,0-.07,0-.07-.1Z" transform="translate(1.11 -15.6)"/><polygon class="cls-3" points="67.64 93.2 67.77 93.31 67.62 93.26 67.64 93.2"/><polygon class="cls-3" points="67.53 93.56 67.59 93.4 67.57 93.54 67.53 93.56"/><path class="cls-3" d="M66.29,109.14l-.05.12Z" transform="translate(1.11 -15.6)"/><path class="cls-3" d="M66.57,109.6h0Z" transform="translate(1.11 -15.6)"/><path class="cls-3" d="M66.34,109.66l-.06.13Z" transform="translate(1.11 -15.6)"/><path d="M59.53,108.72c-.15-.08-.4-.12-.31-.33a.25.25,0,0,1,.4-.06C59.72,108.47,59.69,108.7,59.53,108.72Z" transform="translate(1.11 -15.6)"/><path d="M58.71,109.65c-.56.44,0,1.21-.32,1.81-.18.27-.4-.14-.61.06.08.12.1.29.19.37-.14,0-.36-.26-.53,0a1.9,1.9,0,0,0-.25.76c-.52.24-1.38-.81-1.5.24-.07-.19.09-.44-.08-.56s-.53.71-.78.2c0-.1,0-.23-.12-.22-.32-.08-.34.46-.6.34,0-.41-.23-.79,0-1.15,0-.31-.44-.27-.56-.4-.26-.35.36-.56.19-.95a1.19,1.19,0,0,1-.81-.64c.44,0,.24-.43.26-.62.7,0,.39-.91,1-.94-.08-.09-.27-.14-.19-.28.27,0,.32.47.64.19.1-.16.41,0,.44-.3s-.23-.26,0-.33c.33.23.85.12,1.27.13.26,0,.09.44.41.31.11-.1.05-.33.25-.38.5.53.92,1.46,1.79,1.7A.7.7,0,0,1,58.71,109.65Z" transform="translate(1.11 -15.6)"/><path d="M64.6,105.85a.7.7,0,0,1-.62.36c-.23,0-.28-.29-.52-.21.13-.15-.14-.29-.09-.44s.09-.48.34-.59.73-.1.86.22S64.6,105.64,64.6,105.85Z" transform="translate(1.11 -15.6)"/><path class="cls-3" d="M64,105.32c-.12-.1-.08-.21,0-.26.07.24.25-.06.33.19A.39.39,0,0,1,64,105.32Z" transform="translate(1.11 -15.6)"/><path class="cls-3" d="M64.33,105.41h0Z" transform="translate(1.11 -15.6)"/><path class="cls-3" d="M64,106l.06-.13h0s.19-.11.3-.09C64.25,105.85,64.22,106.25,64,106Z" transform="translate(1.11 -15.6)"/><path class="cls-3" d="M63.59,105.58s.43,0,.42.23c-.1-.41-.23.18-.44,0l.14-.09c-.32,0-.09-.27-.11-.4s0,0,0,.06a.16.16,0,0,0,.17-.15s.09,0,.06,0C64,105.45,63.68,105.41,63.59,105.58Z" transform="translate(1.11 -15.6)"/><path class="cls-3" d="M63.62,105.24l0-.1c.06,0,.13-.06.17,0Z" transform="translate(1.11 -15.6)"/></g><rect class="cls-1" x="3.14" y="40.75" width="44.51" height="31.32" transform="translate(-18.16 -2) rotate(-21.98)"/><g class="cls-2"><path d="M22.78,43.87l0,.1c-.16-.2-.31.09-.35,0S22.66,43.77,22.78,43.87Z" transform="translate(1.11 -15.6)"/><path d="M4.42,48.52l.11.27c-.23.28-.51,0-.68-.07s-.37-.24-.14-.44S4.25,48.29,4.42,48.52Z" transform="translate(1.11 -15.6)"/><path d="M10,50.15c.26-.41.48.61.91,0,0-.17-.34-.29-.12-.49,1.26-.51,2.11-2,2.86-3.19,0,.32.43.6.27,1-.21.62-1.33,1.26-.43,1.86a3.87,3.87,0,0,1,.75,2.92c1,1.07,2.22-.59,3.35.41a.94.94,0,0,1-.32.82c-.62.55-1.56.21-2.05.9.2.3.53.55.53.94-.18,1.07-.15,2.28-.38,3.14-.47-.12-.76-.65-1.21-.62,0,.38-.63.44-.33.9-.21.31-.64.1-.92,0-.34.4.84,1.61-.06,1.36-.32.25-.32-.41-.44-.51a.65.65,0,0,0,.18-.31c-.9-.71-1.35-1.75-2.22-2.47-.88.39-.87,1.54-1.61,2.18-.11-.26.27-.64.25-1l-.34-.75c-1,.21-1.11-.77-1.85-.89.13-.14.49-.2.63-.42.64-.22-.12-.79.32-1.12-.16-.39-.75-.43-1.08-.68-.4.24-.81,0-1.15.28-.44.06,0-.45-.21-.61.86-.15,1.88,0,2.62-.52-.28-.5.59-.16.25-.64l-.43-.21A.27.27,0,0,0,7.94,52a4.29,4.29,0,0,0-.88-.45c.16-.1.48-.15.52-.44l-.39-.49a1.84,1.84,0,0,0,1.62.22c.09-.26-.35-.39-.28-.5.11.07.35.29.51.22a2.77,2.77,0,0,0-.67-2c.15.17.14-.13.24-.17A14.69,14.69,0,0,0,10,50.15Z" transform="translate(1.11 -15.6)"/><path d="M26.35,44c.91.16,1.08.86,1.33,1.68-.26.41-.31,1-.66,1.3-.51-.4-1.09.63-1.31-.2-.48.43-.65-.38-.89-.67a1.56,1.56,0,0,1,.11-1.27c.19-.19.45-.3.51-.63C25.73,44.14,26.23,44.43,26.35,44Z" transform="translate(1.11 -15.6)"/><path class="cls-3" d="M25.91,44.68c-.13.24-.26,0-.31-.11C25.81,44.45,25.68,44.89,25.91,44.68Z" transform="translate(1.11 -15.6)"/><path class="cls-3" d="M25.77,45c-.45.22,0,.48,0,.88,0-.28.07-.22.31-.28,0,.31-.36.26,0,.48,0,0,.39-.08.24-.37.41.18-.22.78,0,.88-.08-.27-.25-.32-.41-.52s-.25.13-.39.16c.13-.25,0-.37-.23-.57,0,.07.17.13.22.07s-.1-.15-.13-.22,0,.07.11.07c.28-.34-.17-.31-.32-.4.07,0,.28.11.42-.1s-.11-.18-.12-.29Z" transform="translate(1.11 -15.6)"/><path class="cls-3" d="M26,45c0-.1,0-.17,0-.22.17.31.42-.21.35.2.08-.3.5-.2.49-.42l.16.31c-.06,0-.08,0-.14-.06-.11.2.29.35.39.2l-.21.42c0,.08.13-.24-.08-.19-.29.34.27.31.36.42-.32.17-.63.45-.4.82-.17-.32-.19-.38-.37-.73.1-.31.28.31.35-.07l-.13-.14s.06,0,.1,0c-.18-.16-.1-.42-.4-.41,0,.28-.16.17-.3.39.5-.17-.07-.63-.36-.7C26,44.89,25.78,45.12,26,45Z" transform="translate(1.11 -15.6)"/><path d="M26.63,44.77l0,.17Z" transform="translate(1.11 -15.6)"/><polygon points="26.87 30.44 26.65 30.18 26.75 30.14 26.87 30.44"/><path d="M4.7,54.24l.27.2Z" transform="translate(1.11 -15.6)"/><path class="cls-3" d="M25.83,46.28c-.25.45.18-.3.22.26-.28-.12-.35.29-.42-.18Z" transform="translate(1.11 -15.6)"/><path d="M6.18,55.17c.2.19-.22.59-.34.29S6,55,6.18,55.17Z" transform="translate(1.11 -15.6)"/><path d="M38.1,42.79c.37.15,1-.23,1.24.11-.16.18-.08.38.12.49s.4-.24.64-.11c.07.93.53.63.86,1.46.34.09.61-.29.87-.51.11.19-.17.15-.2.27.9-.24,1.5-1,2.39-1.38-.14.13.13.41.16.39l-1.49,1.14a6.06,6.06,0,0,0,2.11,4.09c.3.38,1-.31.91.37-.6.7-1.76-.1-2.19.65a17.48,17.48,0,0,1-.83,2.79c-.42.47-.75-.73-1.12.07.07.16.25.32.18.54-.34,0-.54-.67-1-.3-.13.24.28.5-.12.66-.38,0-.19-.66-.67-.54-.78-.22-.25.64-.69.78a.84.84,0,0,1-.3-.65,2.59,2.59,0,0,0-1.16-.22,1.19,1.19,0,0,1-.22.7c-.27-.39-.28-1.07-.76-1.41-.5-.19-.19.57-.67.34,0-.29.27-.68.07-1l-.74-.13c-.59-1.37-.31-2.75-1.1-4a5.76,5.76,0,0,0,.21-2.53c.36,0,.66.11.92-.18,0-.24.07-.49.09-.73.18-.11.37.08.53-.1l.08-.57c.4,0,.78.22,1.12,0s.19-.46.24-.71C37.84,42.51,38,42.68,38.1,42.79Z" transform="translate(1.11 -15.6)"/><path d="M2.68,58.27a.52.52,0,0,1-.42.29C2.18,58.36,2.48,58.16,2.68,58.27Z" transform="translate(1.11 -15.6)"/><path d="M32.14,49.56c.29-.31.47.23.74,0,.26.54,1,.27,1.07,1,.49.65-.52.82-.09,1.5-.63.33-1.14,1.34-2.21.89-.64,0-.34-.94-1-.55a.85.85,0,0,0,.1-.69c-.07-.16-.42-.18-.38-.38s.54-.64.18-1c.4,0,.49-.31.47-.65C31.56,50.33,31.55,49.07,32.14,49.56Z" transform="translate(1.11 -15.6)"/><rect class="cls-3" x="31.5" y="50.28" width="0.03" height="0.18" transform="translate(-15.46 -0.14) rotate(-21.98)"/><path class="cls-3" d="M31.34,50.73c.41.25-.18.11,0,.46-.05-.48-.13.17-.38-.08.07-.29.2,0,.36-.14l-.13-.41.18.16Z" transform="translate(1.11 -15.6)"/><polygon class="cls-3" points="33.33 34.84 33.16 34.8 33.26 34.76 33.33 34.84"/><path class="cls-3" d="M33,50.53c0,.14,0,.09-.16.06Z" transform="translate(1.11 -15.6)"/><polygon class="cls-3" points="32.3 35.91 32.51 35.75 32.4 35.95 32.3 35.91"/><polygon class="cls-3" points="32.79 36.17 32.58 36.03 32.77 36.11 32.79 36.17"/><path class="cls-3" d="M31.61,52l.15.09Z" transform="translate(1.11 -15.6)"/><path class="cls-3" d="M32.35,51.7l-.07.22Z" transform="translate(1.11 -15.6)"/><path class="cls-3" d="M32.37,52l.16.12Z" transform="translate(1.11 -15.6)"/><path d="M29,61.42c-.15.18-.28.53-.55.33a.36.36,0,0,1,0-.58C28.69,61.07,29,61.18,29,61.42Z" transform="translate(1.11 -15.6)"/><path d="M30.07,62.86c.45.93,1.71.34,2.47,1,.32.33-.33.52-.11.89.2-.08.44-.06.59-.16,0,.2-.48.42-.2.73a2.48,2.48,0,0,0,1,.59c.18.81-1.57,1.71-.11,2.19-.29,0-.6-.25-.82,0-.19.39.85,1,0,1.17-.14-.06-.31-.1-.35.1-.21.43.56.62.31,1-.57-.19-1.19.1-1.62-.41-.45-.06-.51.54-.73.67-.58.27-.69-.68-1.29-.55a1.76,1.76,0,0,1-1.15,1c.13-.63-.54-.47-.8-.56.25-1-1.18-.83-1-1.64-.15.1-.28.34-.46.18.08-.37.76-.3.47-.84-.2-.19.06-.6-.3-.72-.15-.09-.43.25-.47,0,.41-.4.41-1.16.55-1.76.13-.36.66,0,.57-.5-.11-.18-.45-.16-.46-.46.89-.55,2.34-.87,2.94-2A1.06,1.06,0,0,1,30.07,62.86Z" transform="translate(1.11 -15.6)"/><path d="M26.44,53.37a1,1,0,0,1,.32,1c-.06.33-.49.31-.45.68-.18-.24-.46.11-.66,0s-.64-.28-.73-.67c.07-.41.07-1.06.58-1.15C25.86,53.07,26.14,53.3,26.44,53.37Z" transform="translate(1.11 -15.6)"/><path class="cls-3" d="M25.51,54c-.17.15-.32.06-.36-.12.37,0,0-.39.37-.42A.51.51,0,0,1,25.51,54Z" transform="translate(1.11 -15.6)"/><path class="cls-3" d="M25.73,53.61v0Z" transform="translate(1.11 -15.6)"/><path class="cls-3" d="M26.47,54.2l-.17-.13v.08c.06,0-.09-.31,0-.44C26.34,53.87,26.9,54,26.47,54.2Z" transform="translate(1.11 -15.6)"/><path class="cls-3" d="M25.76,54.72c0-.07.1-.62.44-.53-.61,0,.19.39-.05.64l-.1-.23c0,.47-.4,0-.59,0,0,0,.05,0,.08,0a.22.22,0,0,0-.15-.28s.07-.11,0-.1C25.7,54.09,25.53,54.54,25.76,54.72Z" transform="translate(1.11 -15.6)"/><path class="cls-3" d="M25.28,54.57l-.15,0c.09-.08-.05-.21.1-.23Z" transform="translate(1.11 -15.6)"/></g><path d="M37.49,83.43c-.56-.59-1-1-1.31-1.29l2.22,2.22A12.45,12.45,0,0,0,37.49,83.43Z" transform="translate(1.11 -15.6)"/><path d="M45.38,91.34l.93.93-.05-.14Z" transform="translate(1.11 -15.6)"/><path d="M31.57,77.45l.57.35c-.72-.92-1.35-1.24-2.29-2.37-1-.86.28.57-.07.31L35,81s.06,0,.06,0C34.17,80.15,32.33,78.19,31.57,77.45Z" transform="translate(1.11 -15.6)"/><path d="M51.76,97.38l1,1-.81-.81Z" transform="translate(1.11 -15.6)"/><path d="M27,72.89S27,73,27,73l2.62,2.62A33.22,33.22,0,0,0,27,72.89Z" transform="translate(1.11 -15.6)"/><path d="M55.45,101c.13.13.26.25.38.38l.38.3A7.15,7.15,0,0,0,55.45,101Z" transform="translate(1.11 -15.6)"/><path d="M70.29,25.81l-1.4,1.4A7.9,7.9,0,0,0,70.29,25.81Z" transform="translate(1.11 -15.6)"/><path d="M62.92,60.64a1.41,1.41,0,0,0-.91-.26H60.44v6.26h1.61c1,0,1.42-1,1.42-3.07a12.43,12.43,0,0,0-.12-2A1.5,1.5,0,0,0,62.92,60.64Z" transform="translate(1.11 -15.6)"/><path d="M65.52,110.4c-.1.21-1.12-1-1.44-1,2.14,2.11-5.17-5.07-7.76-7.54l-.2-.12c3.11,3.1,6.64,6.64,6.42,6.36.62.91-8.37-8-13.22-12.79l21.59,21.59a2.4,2.4,0,0,1,.36-.75C69.64,114.43,68,112.73,65.52,110.4Z" transform="translate(1.11 -15.6)"/><path d="M76.5,30.25l.55.52-.55-.52-2.62-2.53h0L73,26.87l-1.75-1.7L55.07,41.49c-.09.14.24-.17.56-.47-1.88,2.27-19.16,18.5-19.32,19.42-.36.25.56-.79-.72.5-.09.14-.38.5,0,.26-1.54,1.35-3.2,3-4.93,4.74L28,68.61,26.66,70,25.55,71l1,1.08c0-.15.87.68.93.65,1.19,1.48,3.63,3.61,4.8,4.94L32,77.22l3.94,3.94c.15.09-.39-.44-.69-.77.89.83,1,1.1,1,1.25l1.91,1.59c4.87,5.4,11.68,11.39,17.43,17.46a32.7,32.7,0,0,1,3.33,3l-.69-.78c1.62,1.42,0,.16,1.36,1.4,1,.79.46.08-.8-1-.7-.78-.2-.37.36.14,4.51,4.53,8.65,8.82,12.15,12.74A46.52,46.52,0,0,1,75.49,111c.57-.45-2,2.09-.61,1,4.21-3.72,10.46-10.36,15.35-14.87,1.35-1.16,1.69-1.49,2.87-2.57,0,0,0-.07-.1,0,1.29-1.27,3.32-3.38,4.66-4.59.34-.39.51-.76-.17,0,1.86-2,3.54-3.17,4.56-4.35-1,.88.85-1-.33,0a10.61,10.61,0,0,1,2.36-1.92c1.31-1.26,2.66-2.51,4.06-3.79,1.41-1.44,2.71-2.78,3-2.75l.61-.81a17.58,17.58,0,0,0,2-1.7c.8-.88-.12-.06.15-.4s2.34-2.22,3.44-3.12l-.23-.28s.07,0,.11,0l-19-19,0,.1.68.62-1.16-.86c-.69-.76-1-.91-1.67-1.71a9.73,9.73,0,0,0,2,1.64L96.38,50l0,0a31,31,0,0,1-4-3.72c-.38-.47,0-.15.31,0t0,0l-2.12-2.11c0,.12,1,1.22-.28.14.29-.16-2.49-2.43-2.54-2.73l1.34,1.24c-1.25-1.45-2.32-2.19-3.65-3.76-.52-.46-.39-.25-.08.1l.58.61c-.19-.18-.41-.42-.58-.61a28,28,0,0,1-2.49-2.65l1.38,1.33L82,35.57l-.39-.21c-1.21-1.15-3.24-3.5-3.39-3.25.08,0-.49-.71-.76-1.09l-2.58-2.57A19.69,19.69,0,0,0,76.5,30.25ZM69,71.84a6.71,6.71,0,0,1,.69,3.31l-.08,12.79H63V74.71c0-.94-.19-1.55-.55-1.81a3.71,3.71,0,0,0-2-.39V87.94H53.55V54.12H63.94a5.94,5.94,0,0,1,3.84,1.12,5.65,5.65,0,0,1,1.83,3.15,23.22,23.22,0,0,1,.47,5.18,10.89,10.89,0,0,1-.75,4.49,4.18,4.18,0,0,1-2.6,2.24A3.12,3.12,0,0,1,69,71.84Zm32.48,14.09h0l.16-.13Zm5.85-24.78c.95.79,2.57,2.54,3.74,3.54.4.45.2.39.81,1,0-.15.51.39.79.56,1.45,1.51.35.63.54,1-1-1.4-3.43-3.56-5-5.31l-.42-.26c-.89-.83-1.86-2.11-2.59-2.69,1,.58,1,1.24,3,3A10.47,10.47,0,0,0,107.29,61.15Zm-5.23-5.21-1.59-1.6-.47-.57ZM93.4,93.74c-.49.48-.89.86-1.07,1A4.42,4.42,0,0,1,93.4,93.74ZM79.06,54.12V66.21h3.19V54.12H89V87.94H82.25V72.59H79.06V87.94H72.33V54.12Z" transform="translate(1.11 -15.6)"/><path d="M93.94,47.71l.78.58-2-1.95-.09-.06C92.75,46.45,93.64,47.36,93.94,47.71Z" transform="translate(1.11 -15.6)"/><path d="M72.18,25.75l-.55-.54.18.21C72,25.6,72.12,25.7,72.18,25.75Z" transform="translate(1.11 -15.6)"/><path d="M73,26.87l.87.85c-.74-.94-.19-.41,0-.29l-1.58-1.58C72.22,25.93,72.13,26,73,26.87Z" transform="translate(1.11 -15.6)"/><path d="M114.81,73.48s0,0,.1,0l.17-.14.1-.1-.07.07c.14-.12.27-.25.42-.37l.4-.34,1.48-1.48-1.25,1A10.1,10.1,0,0,0,114.81,73.48Z" transform="translate(1.11 -15.6)"/><path d="M99.67,88.67l.33-.27c-6,5.81-13.69,13.68-20.2,20.29l22.25-22.25A18.15,18.15,0,0,0,99.67,88.67Z" transform="translate(1.11 -15.6)"/><path d="M71.81,116.49l-.09.1.09.09.34-.34C71.89,116.55,71.81,116.53,71.81,116.49Z" transform="translate(1.11 -15.6)"/><path d="M72.83,115.31c-.64.74.94-.69,0,.3l6.52-6.51C77.37,110.36,74.67,114.1,72.83,115.31Z" transform="translate(1.11 -15.6)"/><path d="M102.2,86l-.14.39,1-1C103.15,85.18,103.09,85.11,102.2,86Z" transform="translate(1.11 -15.6)"/><path d="M106.6,81.89l1.14-1.15s0,0,0,0c-.19.06-2.58,2.54-1.44,1.2,2.46-2.51,5-4.56,7.24-7.13-1.91,1.83-3.71,3.48-5.43,5-.89.91-1.83,1.86-2.59,2.52.1-.07,0,0,0,.1a9.39,9.39,0,0,1-1.48,1.17c-1,1-2,2-3,3a8.8,8.8,0,0,0-1.9,2c.17-.15.2-.17-.06.09l-.08.11c.84-.74,3.2-2.9,3-3.16l1.51-1.24c.48-.49.69-.33.93-.46l.59-.59.05-.07s0,0,0,0l1.2-1.2A4,4,0,0,1,106.6,81.89Z" transform="translate(1.11 -15.6)"/><path d="M71.2,117.16l.06.06.55-.54-.09-.09Z" transform="translate(1.11 -15.6)"/><path d="M80.32,33.76l-.61-.48L82,35.57l.23.11c-1-1.25-4-4.09-6.39-6.54l1.53,1.63c-.11-.05,0,.07.09.25L79,32.56C78.69,32.2,79.78,33.26,80.32,33.76Z" transform="translate(1.11 -15.6)"/><path d="M79.45,33.08l.26.2L79,32.56Z" transform="translate(1.11 -15.6)"/><polygon points="84.61 21.35 87.13 23.59 83 19.6 84.61 21.35"/><path d="M91.52,44.92c-2.18-2.11-3.71-3.74-5.47-5.57.48.56.7.77,1.39,1.54l-3.2-3.08,6.32,6.33C90.56,44.08,90.76,44.23,91.52,44.92Z" transform="translate(1.11 -15.6)"/><path d="M94.72,48.29,96.38,50A10.72,10.72,0,0,0,94.72,48.29Z" transform="translate(1.11 -15.6)"/><path d="M92.83,46.34c-.09-.07-.13-.09-.15-.09l.09.09C92.83,46.38,92.87,46.39,92.83,46.34Z" transform="translate(1.11 -15.6)"/><path d="M98.28,51.75l-.22-.12.2.21Z" transform="translate(1.11 -15.6)"/><path d="M101.41,53.83,99,51.41A28.41,28.41,0,0,0,101.41,53.83Z" transform="translate(1.11 -15.6)"/><path d="M97.41,49.93s-1.48-1.33-2.58-2.22c1.61,1.41,4.13,4.23,4,3.59-.72-.7-1.33-1.28-1.57-1.46Z" transform="translate(1.11 -15.6)"/><path d="M98.84,51.3l.11.11-.11-.12Z" transform="translate(1.11 -15.6)"/><path d="M98.24,51.12c.39.44,1.71,1.54,1.76,1.84,1.67,1.71-.81-1.05.78.55C101.23,53.93,98.44,51.18,98.24,51.12Z" transform="translate(1.11 -15.6)"/><path d="M105.34,58.29a6.5,6.5,0,0,0-1.45-1.7l-.71-.44C104.17,57.08,104.78,57.71,105.34,58.29Z" transform="translate(1.11 -15.6)"/><path d="M107.84,60.3a.11.11,0,0,0,.08,0C107.75,60.17,107.76,60.2,107.84,60.3Z" transform="translate(1.11 -15.6)"/><path d="M106.36,59.35v0l-1-1A12.19,12.19,0,0,0,106.36,59.35Z" transform="translate(1.11 -15.6)"/><path d="M108.1,61l-1.46-1.52c.57.36,1.82,1.81,2.16,2,0-.11-.76-.91-1-1.18-.52-.13-1.92-1.92-1.48-1C106.82,59.81,107.35,60.33,108.1,61Z" transform="translate(1.11 -15.6)"/><path d="M118.13,71l-1.22,1.23-.11.11-.06.06A18.18,18.18,0,0,0,118.13,71Z" transform="translate(1.11 -15.6)"/><path d="M113,66.1l-.58-.83-2.05-1.68c1.54,1.29,2.93,3.17,3.44,3.22l.64.8-.27-.5c-.43-.46-.81-.88-1.1-1.21C113.55,66.48,113.74,66.8,113,66.1Z" transform="translate(1.11 -15.6)"/><path d="M113.06,65.9l-.29-.34Z" transform="translate(1.11 -15.6)"/><path d="M116.8,72.37c.32-.33.68-.71,1.12-1.2a.93.93,0,0,1,.21-.14h0l-.19-.18.12.15-.83-.77c-.26-.24-.53-.5-.8-.77l-.57-.56.19.2c.52.58,1.21,1.36,1.68,1.93l-1.81,1.53-8.19,8.18c-.14.37-.68.73-1.14,1.15l-.29.29a2.74,2.74,0,0,0-.27.35c0,.31,2.77-2.45,3.95-3.45a4.57,4.57,0,0,0,1.08-1.38c.32-.16,1.31-1.1,1.63-1.26.94-1,1.72-1.78,2.49-2.51.51-.48,1-.9,1.55-1.5ZM109,79.86l-.53.38.94-1.12Zm4-4-.26.22a4.39,4.39,0,0,1-.92.78l.92-.78C113.36,75.45,113.75,74.92,113.05,75.82Z" transform="translate(1.11 -15.6)"/><path d="M114.16,67.11,115,68c.28.3.58.6.87.9q-.77-.86-1.71-1.8Z" transform="translate(1.11 -15.6)"/><path d="M110.72,63.53l-1-1A14.16,14.16,0,0,0,110.72,63.53Z" transform="translate(1.11 -15.6)"/><path d="M112,64.52c-1.61-1.71-.77-.61-1.24-1l1.52,1.5Z" transform="translate(1.11 -15.6)"/><path d="M106.37,82.37c-.83.81-1.33,1.19-1.26,1l0,0C104.46,84.19,105.46,83.31,106.37,82.37Z" transform="translate(1.11 -15.6)"/><path d="M73.12,26.5c.78.9.85,1,.74.93l1,1A11.32,11.32,0,0,0,73.12,26.5Z" transform="translate(1.11 -15.6)"/><path d="M94,47l-.09-.09C94.09,47.08,94.17,47.15,94,47Z" transform="translate(1.11 -15.6)"/><path d="M36.47,83c.39.44,1.34,1.24,2,2C37.9,84.36,36.87,83.11,36.47,83Z" transform="translate(1.11 -15.6)"/><path d="M36,83.58h0l-.38-.32Z" transform="translate(1.11 -15.6)"/><path d="M36,83.57c.21.17.29.22.08,0Z" transform="translate(1.11 -15.6)"/><path d="M33.26,80.8l1.36,1.39c-.11.07-.17.1-1-.76A18.34,18.34,0,0,0,35,82.79l-.31-.32a11.4,11.4,0,0,1,.92.78C34.44,82,33.73,80.85,33.26,80.8Z" transform="translate(1.11 -15.6)"/><path d="M31.24,78.94c.53.53,1.82,1.81,1.54,1.3Z" transform="translate(1.11 -15.6)"/><path d="M29.29,76.71c1.52,1.67.79.65,1.75,1.56a9.07,9.07,0,0,0-.79-.76C31,78.4,29.66,77,29.29,76.71Z" transform="translate(1.11 -15.6)"/><path d="M31,78.27l.41.39C31.31,78.53,31.18,78.39,31,78.27Z" transform="translate(1.11 -15.6)"/><path d="M46.39,92.55l0-.14C46.26,92.35,46.24,92.36,46.39,92.55Z" transform="translate(1.11 -15.6)"/><path d="M26.59,73.75l-.09-.11-.44-.42Z" transform="translate(1.11 -15.6)"/><path d="M29.7,75.68l.08.06-.15-.15Z" transform="translate(1.11 -15.6)"/><path d="M38.4,84.74c2.24,2.07.76.74.85.53C41,87,41.32,87.43,43.58,89.65c-1.35-1.24-1.77-1.51-3-2.81l.27.51c1.54,1.42,2.83,2.49,4.53,4l-7-7C38.75,84.78,38,84.24,38.4,84.74Z" transform="translate(1.11 -15.6)"/><path d="M46.35,92.41c.13.09,1.31,1.24,3,2.87l-3-3Z" transform="translate(1.11 -15.6)"/><path d="M31.89,78.26c.64.8,2.07,2.16,2.82,2.9L33.4,79.74c1.54,1.51,1.78,1.5,2.78,2.4L35,81A20.72,20.72,0,0,1,31.89,78.26Z" transform="translate(1.11 -15.6)"/><path d="M68.89,27.21l-.16.14.88-1.1c-2.06,2.24-5,5.26-7.69,7.91l.11-.4a13.36,13.36,0,0,1-2.6,2.45c3.11-3,3.3-3.9,5.32-5.62-.18.28-.09.14.15,0a30.78,30.78,0,0,1,3.52-3.81l-.47.65,3.31-3.31c.84.84,1.67,1.66,2.47,2.47l2,2c-.55-.68.18-.09,1.16.85,1.45,1.51-.51-.38,0,.31a61.09,61.09,0,0,0,4.66,4.52c-.36-.29,2.76,2.93.75,1.08,2.29,2.37,4.17,3.81,5.53,5.53a12.08,12.08,0,0,1,1.6,1.27l-.18.09.88.68c1.56,1.56,2.06,2.61,3.75,4.06-.31-.29-.94-.89-.91-1,.25,0,3.27,3,2.83,2.24l-1.4-1.21c.57.35-1.16-1.34-.74-1.07L90.1,42.4l0-.18.77.89c1.27.79-1.73-1.68-2.61-2.84l-.12.06c-3-3.14-1.17-1.34-3.62-3.95l-.87-.67c-.14-.09,2.38,2.16,2.2,2.25-1.71-1.54-3.91-3.79-5.76-5.41l1.58,1.12c-.71-.44-1.56-1.79-3.29-3.47l1.39,1.54c-1.44-1-4.17-4.14-6.24-6A6.54,6.54,0,0,1,74.66,27a14,14,0,0,1-1.15-1.09l-1.72-1.81a1.76,1.76,0,0,1,.5.35l.89.8c.46.41,1,1,1.57,1.47,1.08,1,2.06,2,1.91,1.65-.85-.87-1.69-1.64-2.48-2.34-.41-.36-.81-.71-1.18-1.05l-1.74-1.62c-.63.66-1.21,1.25-1.76,1.78l1.76-2,.15.13-.15-.14L69.46,25l.58-.56c-.1.12-.2.25-.32.38l-.34.37-.55.54c-.41.38-.87.81-1.29,1.25l.44-.7-1.6,1.59.24-.17c-2.51,2.63-4.76,4.84-7.17,7.07l1.43-1.31c-.09.14-.83.89-1.48,1.51.27-.11,2-1.84,1.9-1.64-2.25,2.2-2.64,2.39-4.92,4.54-.18.28,1.64-1.22-.14.66,0-.26-1.61,1.27-.51,0-1.48,1.64-1.28,1.09-2.4,2.48.15-.16.38-.38.62-.61.48-.33-.59.73-1,1.18a26,26,0,0,0-2.47,2.12l-2.39,2.54c-.12.08,0-.06,0-.06-2.31,2.41-4.92,4.86-6.57,6.65-.18.29-.76,1,.51-.27a37.74,37.74,0,0,1-3.44,3.35l.77-1c-3,3-6.7,6.41-9.27,9.24l.59-.41C29.4,65,28.12,66.22,27,67.33l-1.57,1.55c-.38.37-.73.73-1.06,1.07l-1,1.08,0,0,0,0c1.79-1.64,1.23-1,.21,0l1.85,1.82c.36.35.67.66.82.79l-.93-1L23.61,71l1.81-1.85.92-1,.64-.67c.15-.15.24-.24.25-.23l-.12.08,3.34-3.52.1.17c-.11-.49,4.77-4.51,3.84-4.11.94-1,1.45-1.25,1.4-1l2.6-2.77c.35-.25-.09.46-.41.77a52.82,52.82,0,0,1-3.85,3.79c-.79,1,1-.66-.94,1.3-1.51,1.37-3.08,2.92-4.58,4.42l-2.17,2.17L23.93,71l1.27,1.34c-.77-.87-1.54-1.64-.44-.67l.55.59.46.51.73.84a40.63,40.63,0,0,1,3,2.8c.42.26-2.24-2.4-3-3.29,1.55,1,2.56,2.87,4.14,4,.76.4-3.47-3.37-2.12-2.47l1.76,1.84c-1-1.38-2.93-2.82-3.27-3.54L25.07,71Zm9.45,3.68c.36.46.15.28-.23-.07-.08-.06-.27-.24-.64-.6l.64.6C78.46,31.09,76.8,29.34,78.34,30.89Zm-14.61-.07c1.71-1.68,2.57-2.51,3.25-3.07a12.55,12.55,0,0,1-2,1.84C63.82,31,63.82,31,63.92,31.17c-.1-.17-2,1.78-2.79,2.73-1.24,1.35-2.4,2.23-3.5,3.24C58.87,35.48,62.37,32.56,63.73,30.82Z" transform="translate(1.11 -15.6)"/><path d="M71.63,25.21a4.48,4.48,0,0,0-.37-.44,5.88,5.88,0,0,0-1,1l1-1Z" transform="translate(1.11 -15.6)"/><path d="M71.93,25.27c-.56-.49-.21-.1.06.21s.34.39.19.27l.1.1C72.32,25.79,72.33,25.71,71.93,25.27Z" transform="translate(1.11 -15.6)"/><path d="M68.85,27.26l-.76.81a3.76,3.76,0,0,1,.59-.53Z" transform="translate(1.11 -15.6)"/><path d="M66.25,30l1.84-2C67.49,28.67,66.59,29.64,66.25,30Z" transform="translate(1.11 -15.6)"/><polygon points="45.39 74.48 46.76 75.87 45.45 74.45 45.39 74.48"/><path d="M53.1,98.7l-.35-.35.72.72c1.05,1.05,1.75,1.73,1.72,1.66l.51.39L42,87.42l2.23,2.4c-.17-.24,2.61,2.56,5.42,5.38.81.8,1.6,1.6,2.34,2.34C52.29,97.86,52.68,98.26,53.1,98.7Z" transform="translate(1.11 -15.6)"/><path d="M39.53,85.44c1.77,1.51,2.4,2.64,3.92,3.79l-.86-1A31.52,31.52,0,0,0,39.53,85.44Z" transform="translate(1.11 -15.6)"/><path d="M79.4,109.09l.4-.4-.41.41Z" transform="translate(1.11 -15.6)"/><path d="M102,86.52l0-.09h0S102.07,86.46,102,86.52Z" transform="translate(1.11 -15.6)"/><path d="M72.65,115.86l.22-.25-.72.73A6.33,6.33,0,0,0,72.65,115.86Z" transform="translate(1.11 -15.6)"/><path d="M71.2,117.16l-.29-.29C70.86,117.11,71,117.2,71.2,117.16Z" transform="translate(1.11 -15.6)"/><path d="M104,85c-1.39,1.23-.5-.08.49-1l0,0-1.41,1.41C103,85.79,102.53,86.54,104,85Z" transform="translate(1.11 -15.6)"/><path d="M117.41,71.08l.06,0a2.44,2.44,0,0,0-.25-.24l.24.24Z" transform="translate(1.11 -15.6)"/><path d="M115.08,73.3a1,1,0,0,1-.17.14c-.4.37-.8.74-1.17,1.14l-.17.18c.51-.48,1-1,1.54-1.49Z" transform="translate(1.11 -15.6)"/><path d="M98,89.6c.09-.13.19-.27.24-.36C98,89.48,98,89.58,98,89.6Z" transform="translate(1.11 -15.6)"/><path d="M98,89.6c-.22.33-.35.57.74-.49l.35-.35a.47.47,0,0,1,.06-.09A6.57,6.57,0,0,1,98,89.6Z" transform="translate(1.11 -15.6)"/><path d="M71.72,116.59h0c-.14-.17-.29-.33-.44-.49v0Z" transform="translate(1.11 -15.6)"/><path class="cls-4" d="M59.7,28.65c.91-1.09,3.06-3.32,3.17-3.13-.11-.19-.11-.19,1.28-1.8a14.41,14.41,0,0,0,2.23-2.09c-.78.63-1.76,1.58-3.72,3.49-1.54,2-5.55,5.32-7,7.22C57,31.19,58.28,30.18,59.7,28.65Z" transform="translate(1.11 -15.6)"/><path class="cls-4" d="M68.31,21.39l.2-.33-3,3.16A30.38,30.38,0,0,1,68.31,21.39Z" transform="translate(1.11 -15.6)"/><path class="cls-5" d="M78.23,25.06c-.39-.16,1.1,1.46,1,1.54.17-.29,2.49,2.39,3.86,3.71l.71.37C82.6,29.25,79.25,26,76.48,23.2Z" transform="translate(1.11 -15.6)"/><path class="cls-4" d="M80.61,27.71l1,.77C80.84,27.77,79.12,26.08,80.61,27.71Z" transform="translate(1.11 -15.6)"/><path class="cls-4" d="M79.34,25.21c-2.17-2.2,1.24,1.39-1-.77C79.11,25.15,80,26,79.34,25.21Z" transform="translate(1.11 -15.6)"/><polygon class="cls-5" points="89.22 19.09 84.5 14.53 86.34 16.52 89.22 19.09"/><path class="cls-5" d="M88,35.31c-.6-.6-1.49-1.62-.57-.81,1.53,1.79,2.75,2.63,4.18,4.29l-1.54-1.42c.06.35,3.23,2.94,2.9,3.12,2.18,1.81-1.3-1.74,1.42.73-2.49-2.4-4.24-4.26-6.24-6.36.54.65.79.88,1.58,1.76l-5.23-5C85.26,32.68,86.67,33.79,88,35.31Z" transform="translate(1.11 -15.6)"/><path class="cls-5" d="M95.36,42.75c1.56,1.59,4,4,4.6,4.25a12.77,12.77,0,0,0-2.81-2.6c-.44-.51-2-2.1-1.26-1.56C96.08,43.12,94.73,42,95.36,42.75Z" transform="translate(1.11 -15.6)"/><path class="cls-5" d="M101.51,49l1.32,1-.76-.71,0-.21a9.46,9.46,0,0,1-2.5-2C100.33,47.92,100.72,48.09,101.51,49Z" transform="translate(1.11 -15.6)"/><path class="cls-5" d="M102.75,48.49a29.88,29.88,0,0,0,2.93,2.91c-1.73-1.69-4.15-4.12-4.73-4.56l.17.1s-1.7-1.52-3-2.53C100,46,103,49.32,102.75,48.49Z" transform="translate(1.11 -15.6)"/><path class="cls-5" d="M100.58,46.3l1.34,1.14Z" transform="translate(1.11 -15.6)"/><polygon class="cls-5" points="107.53 38.19 105.18 35.73 105.72 36.37 107.53 38.19"/><path class="cls-5" d="M104.07,50.4c1.91,2-.92-1.19.89.63.52.47-2.67-2.67-2.9-2.73C102.5,48.81,104,50.05,104.07,50.4Z" transform="translate(1.11 -15.6)"/><path class="cls-5" d="M108,55.39l2.11,1.85Z" transform="translate(1.11 -15.6)"/><path class="cls-5" d="M112.86,60.43l.48.29c1.85,2,4.57,4.47,5.77,6.06-.22-.44,1,.56-.62-1.16-.33-.2-.93-.81-.9-.64a11.62,11.62,0,0,1-.92-1.19c-1.34-1.14-3.19-3.14-4.28-4a11.81,11.81,0,0,1,1,1c-2.27-1.95-2.24-2.71-3.44-3.37C110.73,58,111.84,59.48,112.86,60.43Z" transform="translate(1.11 -15.6)"/><path class="cls-5" d="M113.32,59.62l-1.67-1.73c.65.41,2.08,2.07,2.47,2.23,0-.17-1.68-1.89-1-1.32-.5.08-2.33-2.3-1.78-1.1-2.23-2.16-.5-.86-2.82-3.15l-.81-.5C110.35,56.54,110.66,57.12,113.32,59.62Z" transform="translate(1.11 -15.6)"/><path class="cls-5" d="M119.81,66.21l.73.92-.31-.58c.82.8,1.53,1.56,2.18,2.28s1.37,1.55,1.92,2.2l-2.54,2.13a26.63,26.63,0,0,0-2,1.92c-2.67,3-5.59,5.41-8.47,8.34-1.3,1.54,1.43-1.29,1.65-1.37-.18.64-1.5,1.26-2,2.11,0,.35,3.15-2.8,4.5-4a4.87,4.87,0,0,0,1.23-1.56c.37-.19,1.5-1.26,1.87-1.45,1.07-1.19,2-2,2.84-2.86s1.64-1.53,3.12-3.15l.24-.16h0a17.76,17.76,0,0,1-1.4,1.41L124.78,71l-.22-.21.13.17-.94-.87-.92-.88c-.54-.53-1.1-1.11-1.64-1.67-1.08-1.13-2.06-2.21-2.55-2.78.79.87,1.27,1.56.25.61l-.67-1-2.33-1.92C117.65,64,119.23,66.16,119.81,66.21Z" transform="translate(1.11 -15.6)"/><path class="cls-5" d="M117.73,63.6c-2.46-2.61.08.52-2.63-2.32l2.94,2.9Z" transform="translate(1.11 -15.6)"/><path class="cls-4" d="M119,76.49l-1.35,1.16C118.5,77.17,120.2,74.93,119,76.49Z" transform="translate(1.11 -15.6)"/><polygon class="cls-4" points="115.46 65.51 115.93 64.66 114.86 65.94 115.46 65.51"/><path class="cls-5" d="M109.92,85.1c-.85,1,.35,0,1.42-1.12C110.35,85,109.76,85.38,109.92,85.1Z" transform="translate(1.11 -15.6)"/><path class="cls-4" d="M102.62,91.68c2.12-2.13-1.93,1.83-.57.14C101.85,92.17,100.88,93.35,102.62,91.68Z" transform="translate(1.11 -15.6)"/><path class="cls-5" d="M95.31,98.1A4.77,4.77,0,0,1,96.54,97C96,97.51,95.52,97.94,95.31,98.1Z" transform="translate(1.11 -15.6)"/><path class="cls-5" d="M122.35,72.21l.65-.64Z" transform="translate(1.11 -15.6)"/><path class="cls-5" d="M121.86,72.69l.49-.48Z" transform="translate(1.11 -15.6)"/><path class="cls-5" d="M105.71,88h0l.18-.15Z" transform="translate(1.11 -15.6)"/><path class="cls-5" d="M74.26,21.6l-1-1,1,1Z" transform="translate(1.11 -15.6)"/><path class="cls-5" d="M73.38,20.19c1.86,1.63,1.58,2.15,4.49,4.88l-3.62-3.49C72.82,19.78,75.6,22.73,73.38,20.19Z" transform="translate(1.11 -15.6)"/><path class="cls-5" d="M97.14,43.51l.1.09C97.42,43.77,97.32,43.69,97.14,43.51Z" transform="translate(1.11 -15.6)"/><polygon class="cls-4" points="41.57 77.18 41.64 77.15 43.13 78.77 41.57 77.18"/><path class="cls-4" d="M40.34,92.48l-2.55-2.74,15.7,15.64-.57-.44c0,.08-.77-.7-2-1.89l-4.42-4.43C43.33,95.4,40.15,92.21,40.34,92.48Z" transform="translate(1.11 -15.6)"/><path class="cls-4" d="M39.51,91.8c-1.74-1.3-2.45-2.6-4.47-4.32a35.54,35.54,0,0,1,3.49,3.18Z" transform="translate(1.11 -15.6)"/><path class="cls-6" d="M33.87,87c-.79-.88-1.88-1.79-2.33-2.29C32,84.82,33.17,86.25,33.87,87Z" transform="translate(1.11 -15.6)"/><path class="cls-5" d="M31,85.36,30.61,85l.43.36Z" transform="translate(1.11 -15.6)"/><path class="cls-5" d="M31,85.34l.09,0C31.38,85.59,31.28,85.54,31,85.34Z" transform="translate(1.11 -15.6)"/><path class="cls-5" d="M30.61,85c-.37-.33-.81-.71-1.05-.9l.35.38c-.51-.48-1.44-1.29-1.63-1.56.95,1,1,.95,1.15.87l-1.56-1.59C28.41,82.24,29.22,83.56,30.61,85Z" transform="translate(1.11 -15.6)"/><path class="cls-6" d="M25.58,80.06l1.76,1.48C27.65,82.12,26.18,80.67,25.58,80.06Z" transform="translate(1.11 -15.6)"/><path class="cls-5" d="M23.35,77.52c.42.34,2,1.92,1.09.91.29.23.58.54.91.86C24.25,78.26,25.09,79.43,23.35,77.52Z" transform="translate(1.11 -15.6)"/><path class="cls-5" d="M25.35,79.29l.46.45Z" transform="translate(1.11 -15.6)"/><path class="cls-6" d="M42.87,95.6c-.17-.22-.15-.23,0-.16Z" transform="translate(1.11 -15.6)"/><path class="cls-5" d="M20.27,74.13l-.61-.6.5.48Z" transform="translate(1.11 -15.6)"/><path class="cls-5" d="M71.88,123.15c-2.07-2.16-4-4.22-7.18-7.18-.1.25-1.27-1.18-1.64-1.17,3.19,3.14-12-11.82-9.59-9.21l.84.67-1-.6c-1.47-1.56-3.4-3.79-4.53-4.71-.23-.34,12.94,12.92,12.49,12.37,1,1.38-17.9-17.49-18.48-17.88l-.1-.32c-2.46-2.23-4.12-3.57-6.17-5.46l-.31-.58c1.4,1.49,1.88,1.79,3.42,3.21-2.59-2.54-3-3.08-4.94-5-.11.25,1.59,1.76-1-.6-.63-.78,1.19.67-1-1.49C30.1,82.48,30.37,83.27,28,81l1.5,1.63c-.86-.85-2.49-2.4-3.22-3.32.95,1,3.51,3.35,3.62,3.1-1-.94-3.12-3.18-4-4l.65.4c-.82-1.05-1.54-1.42-2.61-2.71-1.19-1,.5.86-.18.28a37,37,0,0,0-3.12-3.17c.27.78,2.65,2.49,3.78,4.13l-2-2.1c-1.55-1,3.28,3.28,2.41,2.81-1.8-1.27-2.95-3.46-4.72-4.55.89,1,3.91,4,3.43,3.76A42.57,42.57,0,0,0,20.16,74l-.84-1-.52-.58-.62-.68c-1.26-1.1-.39-.22.5.77L17.23,71l2.87-2.81,2.47-2.48c1.71-1.71,3.5-3.48,5.23-5,2.16-2.23.16-.38,1.07-1.47a57.91,57.91,0,0,0,4.39-4.34c.38-.35.88-1.15.47-.87l-3,3.16c.07-.23-.52.08-1.59,1.2,1.06-.46-4.51,4.13-4.39,4.7l-.11-.2-3.81,4,.13-.1a2,2,0,0,0-.28.27l-.74.76-1,1.1L16.86,71l1.88,1.87L19.81,74c-.17-.15-.53-.5-.94-.9L16.76,71c1.17-1.19,1.8-1.88-.24,0l0,0,0,0,1.2-1.24,1.2-1.22,1.8-1.77c1.3-1.26,2.76-2.69,4.19-4.19l-.67.47c2.93-3.23,7.2-7.11,10.57-10.55l-.87,1.16a41.88,41.88,0,0,0,3.92-3.83c-1.45,1.47-.78.64-.58.31,1.89-2,4.87-4.84,7.5-7.59,0,0-.1.16,0,.07l2.73-2.91a32,32,0,0,1,2.81-2.41c.48-.51,1.7-1.72,1.15-1.34-.27.25-.54.51-.7.69,1.26-1.58,1-1,2.73-2.83-1.25,1.5.61-.25.58,0,2-2.14,0-.43.16-.75,2.61-2.46,3-2.67,5.62-5.19.06-.22-1.86,1.75-2.17,1.88a22.63,22.63,0,0,0,1.69-1.73l-1.63,1.5c2.74-2.55,5.31-5.06,8.18-8.07l-.27.19,1.83-1.81-.5.8c.47-.51,1-1,1.47-1.43l.63-.62.38-.41c.13-.15.26-.3.36-.44l-.66.64,2.06-2.15.17.16-.17-.14-2,2.29c.63-.6,1.29-1.27,2-2l2,1.86,1.35,1.2c.9.8,1.86,1.68,2.83,2.67.17.37-.94-.7-2.18-1.89-.61-.59-1.26-1.2-1.79-1.67l-.51-.47-.51-.45a2.17,2.17,0,0,0-.56-.4l2,2.07a14.24,14.24,0,0,0,1.31,1.24,7.28,7.28,0,0,0-1.24-1.39C76.26,21.44,79.38,25,81,26.18l-1.59-1.76c2,1.92,2.95,3.45,3.76,3.95l-1.8-1.27C83.5,29,86,31.52,88,33.28c.2-.11-2.67-2.67-2.51-2.57l1,.77c2.8,3,.73.92,4.14,4.5l.13-.07c1,1.32,4.44,4.15,3,3.25l-.89-1,0,.21,4.12,3.95c-.49-.3,1.49,1.62.85,1.23l1.6,1.37c.5.86-3-2.52-3.24-2.55,0,.14.68.83,1,1.16-1.93-1.66-2.51-2.85-4.28-4.64l-1-.78.2-.1a14.44,14.44,0,0,0-1.83-1.45c-1.55-2-3.7-3.61-6.31-6.32,2.3,2.13-1.27-1.56-.85-1.22-1.21-1.22-4.48-3.94-5.33-5.17-.64-.78,1.6,1.38-.06-.34-1.12-1.08-2-1.76-1.31-1l-2.29-2.24-2.82-2.82-3.78,3.78.53-.74a35.71,35.71,0,0,0-4,4.34c-.27.19-.37.36-.17,0-2.31,2-2.53,2.95-6.08,6.42a15.08,15.08,0,0,0,3-2.8l-.13.46c3-3,6.42-6.48,8.78-9l-1,1.25c2-1.66,1.52-1.75,2.89-2.95.19.21.4.47.63.76.74.68.52.41.2.05s-.7-.79-.07-.23c1.1,1.19-.52.05,1.24,1.83l-2-1.95L52.77,37.31c-.1.16.28-.19.65-.54-2.16,2.59-21.88,21.12-22.06,22.17-.41.28.63-.9-.82.57-.1.16-.43.57,0,.29-1.75,1.55-3.65,3.43-5.63,5.42l-3,3L20.34,69.8,19.08,71l1.16,1.23c0-.17,1,.78,1.06.74,1.36,1.7,4.14,4.12,5.48,5.65l-.38-.55,4.5,4.5c.16.1-.45-.51-.8-.88,1,.94,1.15,1.25,1.17,1.42L33.45,85C39,91.12,46.79,98,53.34,104.89a35.91,35.91,0,0,1,3.81,3.37l-.79-.88c1.85,1.62,0,.18,1.56,1.59,1.09.91.52.09-.92-1.19-.8-.9-.23-.42.42.15C62.82,113.36,67.76,118.5,71.88,123.15Z" transform="translate(1.11 -15.6)"/><path class="cls-5" d="M76.09,116.62c.65-.52-2.27,2.38-.7,1.1,4.81-4.25,11.94-11.83,17.53-17,1.54-1.32,1.92-1.7,3.27-2.93,0,0,0-.08-.11,0,1.47-1.45,3.79-3.86,5.32-5.25.38-.44.58-.86-.19,0,2.12-2.32,4-3.62,5.2-5-1.15,1,1-1.18-.38,0,2.31-2.34,2.49-1.74,4.38-3.53.08-.14.16-.28-.22.08,2.18-1.84,6.06-6.26,6.56-6.21l.7-.92a20.24,20.24,0,0,0,2.32-1.94c.92-1-.14-.07.17-.46.46-.25,2.67-2.53,3.92-3.56l-.25-.33c.06,0,.2.11.4.33l-1.49,1.26A11.17,11.17,0,0,0,121,73.83c0,.07.18-.09.42-.32-6.14,6-11.27,10.2-16.14,15.34a10,10,0,0,0-2.33,2.55c1-.85,3.66-3.31,3.47-3.61l1.73-1.41c.58-.61.81-.35,1.11-.57-1.13,1.08-2.14,2.57-.56,1.17-2.88,2.93.41-1.46-2.1,1.18l-.2.55c.4-.58-1.91,1.57-2.69,2.46l.38-.31c-6.93,6.76-16,16-23.51,23.62-2.3,1.42-5.41,5.71-7.51,7.11-.78.89,1.34-1-.21.62-.77.83-1,.78-1,.71l-.7.77C70.18,123.85,71.2,122.07,76.09,116.62Z" transform="translate(1.11 -15.6)"/></svg>